Patient4_TMGait_0pt2_02_left_23_EMG.mot
version=1
nRows=36
nColumns=33
inDegrees=no
endheader
time	1LAddLong	2LGlutMax	3LGlutMed	4LIliopsoas	5LSemiMemb	6LBicFemLong	7LRecFem	8LVastMed	9LVastLat	10LGasMed	11LTibAnt	12lTibPost	13LPeroneusLong	14LSol	15LExtDigLong	16LFlexDigLong	17RAddLong	18RGlutMax	19RGlutMed	20RIliopsoas	21RSemiMemb	22RBicFemLong	23RRecFem	24RVastMed	25RVastLat	26RGasMed	27RTibAnt	28RTibPost	29RPeroneusLong	30RSol	31RExtDigLong	32RFlexDigLong
52.557	-0.002594	-0.11215	-0.013275	-0.010071	-0.020447	-0.37354	-0.018005	-0.018463	0.027161	-0.26627	-0.001831	-0.007629	-0.035858	0.063477	0.013885	0.003357	0.005951	0.10666	-0.015564	0.28061	0.027008	-0.046234	0.093536	-0.15549	-0.001221	-0.015106	-0.015717	0.010071	0.33386	0.14923	0.009766	-0.016022
52.558	-0.007935	-0.12543	-0.052643	0.007172	-0.036316	-0.29465	0.059814	-0.011749	0.085602	-0.16769	0.003967	-0.001678	-0.031433	0.068359	-0.001984	-0.004272	0.014038	0.049744	-0.27939	0.14847	0.17822	-0.10819	0.084076	-0.056152	0.074615	-0.006409	-0.01358	-0.001221	0.2742	0.23193	-0.001831	-0.00946
52.559	0.005035	-0.10925	-0.041199	0.050201	-0.026703	-0.17853	0.095367	-0.010834	0.15045	-0.11337	0.005798	-0.002899	-0.054321	-0.029602	0.005798	-0.003967	0.058899	0.029755	-0.13596	-0.009308	0.26504	-0.16037	0.19547	-0.027008	0.064545	0.006104	-0.011139	0.009613	0.17731	0.24841	-0.000305	-0.004578
52.56	0.002289	-0.1033	-0.010681	0.0737	0.016632	-0.053711	0.073547	-0.016327	0.14038	-0.065002	0.002289	-0.002899	-0.050964	-0.11459	0.003052	0.002594	0.070496	0.000305	-0.11017	-0.018158	-0.011749	-0.22736	0.080719	-0.031281	0.016174	0.003357	0.020447	-0.013733	0.1535	0.25986	-0.002136	-0.010681
52.561	-0.001678	-0.11337	0.005035	0.046234	0.008392	0.011597	0.038757	-0.003357	0.085602	-0.023956	0.006104	-0.000916	-0.018311	-0.067139	0.004425	0.009003	0.050964	0.064087	-0.26642	0.02594	-0.10452	-0.14145	0.076141	0.006409	0.023651	-0.009766	0.029602	-0.019073	0.054932	0.2179	-0.001678	-0.007782
52.562	0.005798	-0.10178	-0.022125	0.005493	0.007629	0.006409	0.039673	-0.007629	-0.088043	0.006104	-0.000916	-0.00061	-0.01297	0.021973	0	-0.000916	0.007629	0.063019	-0.14389	0.007629	0.13901	0.037537	-0.016632	-0.09201	0.023499	-0.004272	0.020905	-0.020752	0.01358	0.10971	-0.004883	-0.01358
52.563	-0.005798	-0.071716	-0.032654	0.007172	0.03067	0.052948	0.041962	-0.007324	-0.075531	-0.011902	0.00412	-0.005188	-0.00824	0.093536	-0.000305	-0.007935	-0.046234	0.051727	0.31876	-0.02533	0.32532	0.18188	-0.11307	-0.045166	0.027924	-0.003662	0.025482	-0.02121	-0.16205	0.019379	0.000458	-0.013885
52.564	0.003052	-0.070343	-0.019073	0.003662	0.017242	0.16052	-0.015411	-0.007019	0.001678	-0.030823	0.006256	-0.008087	-0.011292	0.040131	0.013123	-0.006866	-0.052948	0.050049	0.22308	-0.042572	-0.23025	0.2182	-0.13336	0.094604	-0.012665	-0.005493	0.010071	-0.018616	0.18509	0.07019	-0.001831	-0.015564
52.565	0.001526	-0.002289	0.004883	-0.00473	-0.029602	0.21027	-0.0177	-0.004578	0.039215	0.09491	0.000305	-0.001221	0.012054	0.032043	0.015564	0.010071	-0.072174	0.032959	-0.23056	-0.025787	-0.11078	0.052795	-0.054016	0.25635	-0.011292	0.001831	0.007019	-0.019226	0.19898	0.010986	-0.000763	-0.009155
52.566	-0.000763	-0.006866	0.019531	0.014038	-0.042419	0.20462	-0.001221	-0.005798	0.048065	0.25879	0.002747	-0.004578	-0.006409	0.02182	0.034332	0.001678	-0.052795	0.021362	-0.35172	-0.16953	0.06897	0.016327	0.057526	0.28625	0.020142	0.008087	0.023041	-0.022125	0.11261	-0.095825	-0.00473	-0.011597
52.567	0.000305	-0.015717	0.047455	-0.002594	-0.045929	0.2066	0.040588	-0.007782	0.042114	0.121	-0.001984	-0.005951	0.013885	0.01358	0.023956	-0.062103	-0.030975	0.059814	-0.25452	-0.11383	-0.033875	0.008698	0.12787	0.093079	0.034637	0.015106	0.03418	-0.028381	0.12436	-0.19653	-0.001526	-0.011749
52.568	0.003052	-0.062408	0.069275	0.005951	0.007629	0.14481	0.048676	-0.009766	0.073242	0.13977	0.005188	0	0.037384	0.023346	0.003967	-0.0177	0.010834	0.097809	-0.24948	-0.000916	-0.27069	-0.000153	0.17151	-0.087433	0.002136	0.021667	0.049591	-0.031433	-0.16678	-0.12558	-0.002289	-0.007477
52.569	0.002289	-0.088348	0.076447	0.016632	0.032349	0.009155	0.064087	-0.038452	0.074005	0.094299	0.008087	-0.00061	-0.1384	0.007477	-0.02243	-0.008392	0.066986	0.056458	-0.30624	0.14236	-0.26916	-0.17975	0.18112	-0.1767	-0.020752	0.012817	0.067444	-0.036316	0.19562	0.051422	-0.001068	-0.012665
52.57	-0.007019	-0.14511	0.1326	0.007324	0.011292	-0.000763	0.11459	0.011749	0.061035	-0.12268	0.004578	0.005951	-0.10483	0.012054	-0.004425	-0.002594	0.1033	0.045013	-0.24368	0.16647	0.061035	-0.18204	0.11551	-0.16113	-0.035248	0.001678	0.074463	-0.033722	0.072784	-0.07782	0.001678	-0.016632
52.571	-0.002441	-0.12299	0.19516	0.010376	-0.003204	-0.10193	0.11078	0.001221	-0.035248	-0.098724	-0.005188	-0.008087	0.61249	0.003357	0.031281	-0.000153	0.08194	0.032196	0.008698	0.058136	0.068207	-0.095062	-0.007935	-0.098267	-0.012512	0.013733	0.050964	0.010071	-0.51193	-0.3392	-0.000763	-0.024414
52.572	-0.002899	-0.13458	0.11749	0.026703	0.013123	-0.007935	0.1207	0.00885	-0.088348	0.1268	-0.003357	-0.004272	0.35751	0.046387	0.028076	0.00351	0.037537	0.047455	0.067749	-0.10315	-0.16235	0.010986	-0.21927	-0.096893	0.022888	0.023499	0.068359	0.036621	-1.1041	-1.0378	-0.001068	-0.029755
52.573	-0.00473	-0.068512	0.097351	0.024719	0.060425	-0.077057	0.12802	-0.001068	0.055389	0.16205	0.013428	-0.002289	-0.16296	-0.045471	-0.005798	-0.001373	-0.025024	0.036163	-0.073395	-0.24262	-0.17151	-0.089264	-0.33951	-0.074768	0.056305	0.029755	0.073395	-0.27741	-1.0901	-0.64636	0	-0.019379
52.574	-0.002747	-0.071869	0.17288	0.014343	0.056152	-0.24719	0.14389	0.005035	0.11093	0.044556	-0.009613	0.000305	0.23941	-0.14664	-0.049744	0.014496	-0.023346	0.010376	-0.002594	-0.24582	-0.022736	-0.18127	-0.18051	-0.018616	0.052643	0.012054	-0.056763	0.14496	0.02594	0.29266	0.001373	-0.007629
52.575	0.002899	-0.11841	-0.025787	0.003967	0.036011	-0.085754	0.036011	-0.001984	0.18463	0.001068	-0.012665	0.001221	0.53482	-0.058289	0.02594	0.015564	0.02533	0.005493	-0.047913	-0.1712	0.15823	-0.044556	-0.075531	-0.03891	0.048065	-0.007782	-0.10315	0.049133	0.61951	0.62393	-0.000458	-0.004578
52.576	0.005798	-0.16312	-0.19928	-0.023499	0.011597	-0.005341	-0.000458	-0.007935	0.15045	0.012207	-0.003357	0	-0.031281	0.019379	0.10437	0.01236	0.067444	0.038757	-0.11231	0.015869	0.22705	0.052032	-0.007019	0.006409	0.028839	-0.016022	-0.040436	-0.027924	0.90881	0.4744	0.002899	-0.004883
52.577	-0.006409	-0.24353	-0.3566	-0.003662	0.003967	0.063934	0.05249	-0.004425	0.014648	-0.00473	-0.013123	0.002594	-0.30365	-0.00946	-0.021667	0.000305	0.07782	0.046234	-0.12772	0.24429	0.10468	0.033264	-0.01358	-0.051422	0.021973	-0.031586	-0.002747	0.010223	0.77194	0.039825	-0.00061	-0.018005
52.578	-0.010681	-0.27542	-0.30304	0.028381	-0.016785	0.1091	0.1387	0	-0.16373	-0.23407	-0.007782	0.006714	-0.036926	0.056763	-0.077667	0.004272	-0.000916	0.009308	-0.038757	0.30395	-0.52978	0.27802	-0.041656	-0.065002	0.025024	-0.02243	0.019989	0.083618	-0.23163	-0.10376	-0.001221	-0.010681
52.579	-0.010681	-0.26291	-0.010223	0.016937	-0.010071	0.19867	0.19974	-0.010376	-0.15625	-0.20752	0.013428	0.013885	-0.25146	0.1239	-0.020447	0.00351	-0.04303	0.016632	0.11337	0.17853	-0.80521	0.37827	-0.03067	0.019989	0.012054	-0.036926	0.019073	0.071869	-0.28519	-0.010681	-0.002289	-0.00885
52.58	0.003204	-0.242	-0.039215	0.014954	-0.015106	0.16647	0.19852	-0.011749	-0.089111	-0.11704	0.030212	0.006104	-0.56122	0.20645	0.002594	0.003204	-0.07782	-0.015564	0.010376	0.093384	0.13245	0.2861	0.002594	0.072632	0.01236	-0.03479	-0.009766	0.030518	0.064545	0.22629	0.005341	-0.003967
52.581	0.001831	-0.18677	-0.035858	0.017395	-0.011597	0.003662	0.20432	0.005646	-0.077515	-0.13016	0.011597	-0.006104	-0.31464	0.11734	-0.009613	-0.007782	-0.057068	0.005341	-0.085907	0.014648	0.68375	0.06958	-0.065308	0.11139	0.014954	-0.03006	0.00412	0.011597	0.18601	0.11261	0.000763	0.010376
52.582	-0.004578	-0.13779	0.059967	0.012512	-0.006561	0.01358	0.18829	0.012207	-0.08728	-0.094147	-0.003662	0.035706	0.039673	-0.14694	-0.049896	-0.003357	0.011749	0.10239	-0.050507	-0.011749	0.24872	-0.094604	-0.032043	0.057983	0.003662	-0.014038	-0.026093	-0.003662	0.17319	-0.087128	0.001373	-0.01297
52.583	0.002289	-0.077209	0.1004	-0.009613	0.010529	0.062561	0.18814	0.005646	-0.050354	-0.01236	-0.020447	0.039673	0.1506	-0.21347	-0.024872	0.005798	-0.008087	0.027618	0.01709	-0.053558	-0.1796	-0.18402	-0.045929	0.053253	0.03418	-0.015259	-0.014954	-0.010376	0.076752	0.11215	0.009003	-0.01358
52.584	-0.000305	-0.039368	0.12833	0.005341	0.019073	0.095215	0.15152	0.000153	-0.042419	0.103	-0.003967	-0.017242	0.098572	-0.20477	0.009155	0.004883	-0.018463	-0.006409	0.05249	-0.15945	0.060272	-0.07843	0.022736	-0.047302	0.010223	0.006104	0.003967	-0.000916	-0.066376	0.019684	0.000458	-0.010681
52.585	0.005646	-0.045013	0.16068	0.011902	0.010681	0.026703	0.018768	-0.004578	-0.04425	0.095367	-0.000458	-0.026855	0.020599	-0.14313	0.037689	-0.001373	-0.037079	-0.006409	0.037079	-0.13565	0.1059	0.016327	-0.005341	-0.050049	0.027466	0.000458	-0.015106	-0.018768	-0.089111	-0.11932	0.000916	-0.016937
52.586	-0.001526	-0.02182	0.21606	0.009766	-0.004883	-0.30746	0.004425	-0.006104	0.028992	-0.01358	-0.011749	-0.012512	-0.01297	-0.086823	0.007935	0.000153	-0.005798	0.029144	0.024872	-0.073547	-0.17014	-0.034943	-0.024414	-0.034332	0.04837	0.001831	-0.061035	-0.015259	0.018158	-0.12177	0.011139	-0.010986
52.587	0.006866	0.002899	0.19104	0.023804	-0.018005	-0.44983	0.060577	-0.006409	0.080261	-0.055847	0.003815	-0.008698	0.10849	-0.049438	0.009308	0.002747	0.032349	0.025635	0.07843	0.065308	-0.059814	-0.081787	0.012817	-0.046844	0.047607	-0.008392	-0.016785	-0.021057	-0.1265	-0.038605	-0.00061	-0.013275
52.588	0.006866	0.046387	0.14923	0.016022	0.022583	-0.33463	0.11032	0.002441	0.024109	-0.049133	0.001984	0.006866	0.039978	-0.035095	-0.002136	-0.002289	0.017242	0.066833	-0.045166	0.13886	-0.13275	-0.049133	0.024414	-0.059509	0.033875	-0.003662	0.000458	-0.017548	-0.12802	-0.063934	-0.003357	-0.016632
52.589	-0.001678	0.084991	0.084534	0.013733	0.016327	-0.1442	0.14633	-0.002441	-0.046234	-0.032654	0.012512	0.006104	-0.029755	-0.040283	-0.02121	0.005493	-0.021362	-0.000763	0.039978	0.068817	0.022736	-0.081787	0.025177	-0.048981	-0.017395	-0.006409	0.008698	-0.015106	-0.09491	-0.099335	0.001221	-0.020447
52.59	-0.010071	0.016785	0.0914	0.006256	-0.006561	-0.091095	0.16617	0.002899	-0.081787	-0.015564	0.005951	-0.003662	-0.032043	-0.027313	-0.013123	0.00351	0.03891	-0.065002	0.064392	0.00351	-0.066376	-0.21637	0.045471	-0.16312	-0.066986	0.001068	0.020142	-0.016937	-0.061188	-0.10056	0.001984	-0.015717
52.591	-0.020447	-0.045624	0.077972	0.019226	-0.011292	-0.087891	0.23758	0.009003	-0.12314	0.046997	0.006561	-0.003204	-0.023041	0.004272	0.012054	-0.008087	0.12207	-0.043182	0.044098	0.027466	0.28931	-0.24597	0.063171	-0.23209	-0.036621	-0.005341	0.044708	-0.012512	-0.05661	-0.094452	-0.001984	-0.009155
52.592	-0.012054	-0.077972	0.029755	0.013733	-0.011139	-0.03891	0.21637	0.010529	-0.12299	0.098419	0.017242	-0.005646	-0.001221	0.036926	0.012054	-0.006104	0.13534	-0.048981	0.022736	0.048065	0.26916	-0.13092	0.014343	-0.22339	-0.007324	-0.00473	0.083313	-0.013123	-0.10529	-0.11108	-0.001373	-0.014801
